<svg xmlns="http://www.w3.org/2000/svg" viewBox="0 0 1200 820" role="img" aria-label="LingoSleep Graphify code graph"><rect width="1200" height="820" fill="#f8fafc"/><text x="40" y="52" font-family="Arial, sans-serif" font-size="30" font-weight="700" fill="#0f172a">LingoSleep code graph</text><text x="40" y="82" font-family="Arial, sans-serif" font-size="15" fill="#475569">Generated from graphify-out/graph.json: 140 nodes, 149 edges, 17 communities</text><line x1="477.5" y1="622.6" x2="396.1" y2="622.6" stroke="#94a3b8" stroke-opacity="0.24" stroke-width="1"/><line x1="671.2" y1="160.0" x2="668.5" y2="179.2" stroke="#94a3b8" stroke-opacity="0.24" stroke-width="1"/><line x1="671.2" y1="160.0" x2="648.6" y2="108.0" stroke="#94a3b8" stroke-opacity="0.24" stroke-width="1"/><line x1="671.2" y1="160.0" x2="668.5" y2="140.8" stroke="#94a3b8" stroke-opacity="0.24" stroke-width="1"/><line x1="668.5" y1="179.2" x2="559.0" y2="218.1" stroke="#94a3b8" stroke-opacity="0.24" stroke-width="1"/><line x1="668.5" y1="179.2" x2="529.5" y2="169.7" stroke="#94a3b8" stroke-opacity="0.24" stroke-width="1"/><line x1="668.5" y1="179.2" x2="534.7" y2="188.4" stroke="#94a3b8" stroke-opacity="0.24" stroke-width="1"/><line x1="668.5" y1="179.2" x2="534.7" y2="131.6" stroke="#94a3b8" stroke-opacity="0.24" stroke-width="1"/><line x1="668.5" y1="179.2" x2="595.1" y2="89.0" stroke="#94a3b8" stroke-opacity="0.24" stroke-width="1"/><line x1="668.5" y1="179.2" x2="632.7" y2="96.8" stroke="#94a3b8" stroke-opacity="0.24" stroke-width="1"/><line x1="668.5" y1="179.2" x2="632.7" y2="223.2" stroke="#94a3b8" stroke-opacity="0.24" stroke-width="1"/><line x1="668.5" y1="179.2" x2="544.8" y2="115.1" stroke="#94a3b8" stroke-opacity="0.24" stroke-width="1"/><line x1="668.5" y1="179.2" x2="559.0" y2="101.9" stroke="#94a3b8" stroke-opacity="0.24" stroke-width="1"/><line x1="668.5" y1="179.2" x2="614.5" y2="90.3" stroke="#94a3b8" stroke-opacity="0.24" stroke-width="1"/><line x1="668.5" y1="179.2" x2="576.2" y2="92.9" stroke="#94a3b8" stroke-opacity="0.24" stroke-width="1"/><line x1="668.5" y1="179.2" x2="544.8" y2="204.9" stroke="#94a3b8" stroke-opacity="0.24" stroke-width="1"/><line x1="668.5" y1="179.2" x2="529.5" y2="150.3" stroke="#94a3b8" stroke-opacity="0.24" stroke-width="1"/><line x1="668.5" y1="179.2" x2="660.8" y2="197.0" stroke="#94a3b8" stroke-opacity="0.24" stroke-width="1"/><line x1="668.5" y1="179.2" x2="648.6" y2="212.0" stroke="#94a3b8" stroke-opacity="0.24" stroke-width="1"/><line x1="632.7" y1="223.2" x2="614.5" y2="229.7" stroke="#94a3b8" stroke-opacity="0.24" stroke-width="1"/><line x1="632.7" y1="223.2" x2="595.1" y2="231.0" stroke="#94a3b8" stroke-opacity="0.24" stroke-width="1"/><line x1="632.7" y1="223.2" x2="576.2" y2="227.1" stroke="#94a3b8" stroke-opacity="0.24" stroke-width="1"/><line x1="648.6" y1="108.0" x2="660.8" y2="123.0" stroke="#94a3b8" stroke-opacity="0.24" stroke-width="1"/><line x1="967.9" y1="386.9" x2="938.0" y2="298.6" stroke="#94a3b8" stroke-opacity="0.24" stroke-width="1"/><line x1="967.9" y1="386.9" x2="953.2" y2="478.4" stroke="#94a3b8" stroke-opacity="0.24" stroke-width="1"/><line x1="967.9" y1="386.9" x2="857.4" y2="416.5" stroke="#94a3b8" stroke-opacity="0.24" stroke-width="1"/><line x1="967.9" y1="386.9" x2="959.9" y2="416.5" stroke="#94a3b8" stroke-opacity="0.24" stroke-width="1"/><line x1="967.9" y1="386.9" x2="908.7" y2="446.1" stroke="#94a3b8" stroke-opacity="0.24" stroke-width="1"/><line x1="967.9" y1="386.9" x2="857.4" y2="357.3" stroke="#94a3b8" stroke-opacity="0.24" stroke-width="1"/><line x1="967.9" y1="386.9" x2="879.1" y2="438.2" stroke="#94a3b8" stroke-opacity="0.24" stroke-width="1"/><line x1="967.9" y1="386.9" x2="938.3" y2="438.2" stroke="#94a3b8" stroke-opacity="0.24" stroke-width="1"/><line x1="857.4" y1="416.5" x2="849.5" y2="386.9" stroke="#94a3b8" stroke-opacity="0.24" stroke-width="1"/><line x1="857.4" y1="357.3" x2="908.7" y2="327.8" stroke="#94a3b8" stroke-opacity="0.24" stroke-width="1"/><line x1="857.4" y1="357.3" x2="879.1" y2="335.7" stroke="#94a3b8" stroke-opacity="0.24" stroke-width="1"/><line x1="857.4" y1="357.3" x2="959.9" y2="357.3" stroke="#94a3b8" stroke-opacity="0.24" stroke-width="1"/><line x1="857.4" y1="357.3" x2="938.3" y2="335.7" stroke="#94a3b8" stroke-opacity="0.24" stroke-width="1"/><line x1="938.0" y1="298.6" x2="832.3" y2="338.7" stroke="#94a3b8" stroke-opacity="0.24" stroke-width="1"/><line x1="938.0" y1="298.6" x2="818.8" y2="284.1" stroke="#94a3b8" stroke-opacity="0.24" stroke-width="1"/><line x1="938.0" y1="298.6" x2="856.1" y2="242.0" stroke="#94a3b8" stroke-opacity="0.24" stroke-width="1"/><line x1="938.0" y1="298.6" x2="931.0" y2="326.7" stroke="#94a3b8" stroke-opacity="0.24" stroke-width="1"/><line x1="938.0" y1="298.6" x2="911.8" y2="248.8" stroke="#94a3b8" stroke-opacity="0.24" stroke-width="1"/><line x1="938.0" y1="298.6" x2="884.8" y2="358.6" stroke="#94a3b8" stroke-opacity="0.24" stroke-width="1"/><line x1="931.0" y1="326.7" x2="911.8" y2="348.3" stroke="#94a3b8" stroke-opacity="0.24" stroke-width="1"/><line x1="884.8" y1="358.6" x2="856.1" y2="355.1" stroke="#94a3b8" stroke-opacity="0.24" stroke-width="1"/><line x1="832.3" y1="338.7" x2="818.8" y2="313.0" stroke="#94a3b8" stroke-opacity="0.24" stroke-width="1"/><line x1="818.8" y1="284.1" x2="832.3" y2="258.5" stroke="#94a3b8" stroke-opacity="0.24" stroke-width="1"/><line x1="856.1" y1="242.0" x2="884.8" y2="238.6" stroke="#94a3b8" stroke-opacity="0.24" stroke-width="1"/><line x1="911.8" y1="248.8" x2="931.0" y2="270.5" stroke="#94a3b8" stroke-opacity="0.24" stroke-width="1"/><line x1="953.2" y1="478.4" x2="940.3" y2="513.8" stroke="#94a3b8" stroke-opacity="0.24" stroke-width="1"/><line x1="953.2" y1="478.4" x2="870.7" y2="526.0" stroke="#94a3b8" stroke-opacity="0.24" stroke-width="1"/><line x1="953.2" y1="478.4" x2="846.5" y2="459.6" stroke="#94a3b8" stroke-opacity="0.24" stroke-width="1"/><line x1="953.2" y1="478.4" x2="907.7" y2="424.3" stroke="#94a3b8" stroke-opacity="0.24" stroke-width="1"/><line x1="940.3" y1="513.8" x2="907.7" y2="532.6" stroke="#94a3b8" stroke-opacity="0.24" stroke-width="1"/><line x1="870.7" y1="526.0" x2="846.5" y2="497.2" stroke="#94a3b8" stroke-opacity="0.24" stroke-width="1"/><line x1="846.5" y1="459.6" x2="870.7" y2="430.8" stroke="#94a3b8" stroke-opacity="0.24" stroke-width="1"/><line x1="907.7" y1="424.3" x2="940.3" y2="443.1" stroke="#94a3b8" stroke-opacity="0.24" stroke-width="1"/><line x1="583.8" y1="655.7" x2="502.3" y2="655.7" stroke="#94a3b8" stroke-opacity="0.24" stroke-width="1"/><line x1="783.1" y1="176.9" x2="819.9" y2="513.0" stroke="#94a3b8" stroke-opacity="0.24" stroke-width="1"/><line x1="783.1" y1="176.9" x2="772.8" y2="213.9" stroke="#94a3b8" stroke-opacity="0.24" stroke-width="1"/><line x1="783.1" y1="176.9" x2="641.5" y2="186.6" stroke="#94a3b8" stroke-opacity="0.24" stroke-width="1"/><line x1="783.1" y1="176.9" x2="393.3" y2="560.7" stroke="#94a3b8" stroke-opacity="0.24" stroke-width="1"/><line x1="783.1" y1="176.9" x2="670.9" y2="118.7" stroke="#94a3b8" stroke-opacity="0.24" stroke-width="1"/><line x1="783.1" y1="176.9" x2="342.6" y2="478.4" stroke="#94a3b8" stroke-opacity="0.24" stroke-width="1"/><line x1="783.1" y1="176.9" x2="646.7" y2="148.5" stroke="#94a3b8" stroke-opacity="0.24" stroke-width="1"/><line x1="783.1" y1="176.9" x2="646.7" y2="205.2" stroke="#94a3b8" stroke-opacity="0.24" stroke-width="1"/><line x1="783.1" y1="176.9" x2="780.5" y2="157.7" stroke="#94a3b8" stroke-opacity="0.24" stroke-width="1"/><line x1="783.1" y1="176.9" x2="656.8" y2="132.0" stroke="#94a3b8" stroke-opacity="0.24" stroke-width="1"/><line x1="783.1" y1="176.9" x2="889.5" y2="525.3" stroke="#94a3b8" stroke-opacity="0.24" stroke-width="1"/><line x1="783.1" y1="176.9" x2="688.2" y2="243.9" stroke="#94a3b8" stroke-opacity="0.24" stroke-width="1"/><line x1="783.1" y1="176.9" x2="902.4" y2="560.7" stroke="#94a3b8" stroke-opacity="0.24" stroke-width="1"/><line x1="783.1" y1="176.9" x2="656.8" y2="221.8" stroke="#94a3b8" stroke-opacity="0.24" stroke-width="1"/><line x1="783.1" y1="176.9" x2="707.1" y2="247.9" stroke="#94a3b8" stroke-opacity="0.24" stroke-width="1"/><line x1="783.1" y1="176.9" x2="856.9" y2="506.5" stroke="#94a3b8" stroke-opacity="0.24" stroke-width="1"/><line x1="783.1" y1="176.9" x2="889.5" y2="596.0" stroke="#94a3b8" stroke-opacity="0.24" stroke-width="1"/><line x1="783.1" y1="176.9" x2="744.7" y2="113.7" stroke="#94a3b8" stroke-opacity="0.24" stroke-width="1"/><line x1="783.1" y1="176.9" x2="760.6" y2="228.9" stroke="#94a3b8" stroke-opacity="0.24" stroke-width="1"/><line x1="783.1" y1="176.9" x2="780.5" y2="196.1" stroke="#94a3b8" stroke-opacity="0.24" stroke-width="1"/><line x1="783.1" y1="176.9" x2="772.8" y2="139.9" stroke="#94a3b8" stroke-opacity="0.24" stroke-width="1"/><line x1="783.1" y1="176.9" x2="641.5" y2="167.2" stroke="#94a3b8" stroke-opacity="0.24" stroke-width="1"/><line x1="783.1" y1="176.9" x2="726.5" y2="107.2" stroke="#94a3b8" stroke-opacity="0.24" stroke-width="1"/><line x1="783.1" y1="176.9" x2="819.9" y2="608.3" stroke="#94a3b8" stroke-opacity="0.24" stroke-width="1"/><line x1="783.1" y1="176.9" x2="688.2" y2="109.8" stroke="#94a3b8" stroke-opacity="0.24" stroke-width="1"/><line x1="783.1" y1="176.9" x2="744.7" y2="240.1" stroke="#94a3b8" stroke-opacity="0.24" stroke-width="1"/><line x1="783.1" y1="176.9" x2="726.5" y2="246.6" stroke="#94a3b8" stroke-opacity="0.24" stroke-width="1"/><line x1="783.1" y1="176.9" x2="795.7" y2="579.5" stroke="#94a3b8" stroke-opacity="0.24" stroke-width="1"/><line x1="783.1" y1="176.9" x2="311.9" y2="560.7" stroke="#94a3b8" stroke-opacity="0.24" stroke-width="1"/><line x1="783.1" y1="176.9" x2="707.1" y2="105.9" stroke="#94a3b8" stroke-opacity="0.24" stroke-width="1"/><line x1="783.1" y1="176.9" x2="670.9" y2="235.0" stroke="#94a3b8" stroke-opacity="0.24" stroke-width="1"/><line x1="783.1" y1="176.9" x2="261.1" y2="478.4" stroke="#94a3b8" stroke-opacity="0.24" stroke-width="1"/><line x1="783.1" y1="176.9" x2="795.7" y2="541.8" stroke="#94a3b8" stroke-opacity="0.24" stroke-width="1"/><line x1="783.1" y1="176.9" x2="856.9" y2="614.8" stroke="#94a3b8" stroke-opacity="0.24" stroke-width="1"/><line x1="783.1" y1="176.9" x2="760.6" y2="124.9" stroke="#94a3b8" stroke-opacity="0.24" stroke-width="1"/><line x1="783.1" y1="176.9" x2="816.6" y2="622.6" stroke="#94a3b8" stroke-opacity="0.24" stroke-width="1"/><line x1="783.1" y1="176.9" x2="725.4" y2="584.8" stroke="#94a3b8" stroke-opacity="0.24" stroke-width="1"/><line x1="783.1" y1="176.9" x2="725.4" y2="660.4" stroke="#94a3b8" stroke-opacity="0.24" stroke-width="1"/><line x1="783.1" y1="176.9" x2="763.2" y2="676.0" stroke="#94a3b8" stroke-opacity="0.24" stroke-width="1"/><line x1="783.1" y1="176.9" x2="801.0" y2="660.4" stroke="#94a3b8" stroke-opacity="0.24" stroke-width="1"/><line x1="783.1" y1="176.9" x2="709.7" y2="622.6" stroke="#94a3b8" stroke-opacity="0.24" stroke-width="1"/><line x1="783.1" y1="176.9" x2="763.2" y2="569.1" stroke="#94a3b8" stroke-opacity="0.24" stroke-width="1"/><line x1="783.1" y1="176.9" x2="801.0" y2="584.8" stroke="#94a3b8" stroke-opacity="0.24" stroke-width="1"/><line x1="819.9" y1="513.0" x2="902.4" y2="560.7" stroke="#94a3b8" stroke-opacity="0.24" stroke-width="1"/><line x1="819.9" y1="513.0" x2="889.5" y2="596.0" stroke="#94a3b8" stroke-opacity="0.24" stroke-width="1"/><line x1="819.9" y1="513.0" x2="856.9" y2="614.8" stroke="#94a3b8" stroke-opacity="0.24" stroke-width="1"/><line x1="819.9" y1="513.0" x2="819.9" y2="608.3" stroke="#94a3b8" stroke-opacity="0.24" stroke-width="1"/><line x1="819.9" y1="513.0" x2="795.7" y2="579.5" stroke="#94a3b8" stroke-opacity="0.24" stroke-width="1"/><line x1="819.9" y1="513.0" x2="795.7" y2="541.8" stroke="#94a3b8" stroke-opacity="0.24" stroke-width="1"/><line x1="261.1" y1="478.4" x2="342.6" y2="478.4" stroke="#94a3b8" stroke-opacity="0.24" stroke-width="1"/><line x1="819.9" y1="513.0" x2="261.1" y2="478.4" stroke="#94a3b8" stroke-opacity="0.24" stroke-width="1"/><line x1="819.9" y1="513.0" x2="393.3" y2="560.7" stroke="#94a3b8" stroke-opacity="0.24" stroke-width="1"/><line x1="819.9" y1="513.0" x2="889.5" y2="525.3" stroke="#94a3b8" stroke-opacity="0.24" stroke-width="1"/><line x1="819.9" y1="513.0" x2="856.9" y2="506.5" stroke="#94a3b8" stroke-opacity="0.24" stroke-width="1"/><line x1="819.9" y1="513.0" x2="841.6" y2="288.4" stroke="#94a3b8" stroke-opacity="0.24" stroke-width="1"/><line x1="393.3" y1="560.7" x2="311.9" y2="560.7" stroke="#94a3b8" stroke-opacity="0.24" stroke-width="1"/><line x1="816.6" y1="622.6" x2="725.4" y2="584.8" stroke="#94a3b8" stroke-opacity="0.24" stroke-width="1"/><line x1="816.6" y1="622.6" x2="725.4" y2="660.4" stroke="#94a3b8" stroke-opacity="0.24" stroke-width="1"/><line x1="816.6" y1="622.6" x2="763.2" y2="676.0" stroke="#94a3b8" stroke-opacity="0.24" stroke-width="1"/><line x1="816.6" y1="622.6" x2="801.0" y2="660.4" stroke="#94a3b8" stroke-opacity="0.24" stroke-width="1"/><line x1="816.6" y1="622.6" x2="709.7" y2="622.6" stroke="#94a3b8" stroke-opacity="0.24" stroke-width="1"/><line x1="816.6" y1="622.6" x2="763.2" y2="569.1" stroke="#94a3b8" stroke-opacity="0.24" stroke-width="1"/><line x1="816.6" y1="622.6" x2="801.0" y2="584.8" stroke="#94a3b8" stroke-opacity="0.24" stroke-width="1"/><line x1="880.0" y1="225.2" x2="743.6" y2="196.9" stroke="#94a3b8" stroke-opacity="0.24" stroke-width="1"/><line x1="880.0" y1="225.2" x2="857.4" y2="277.3" stroke="#94a3b8" stroke-opacity="0.24" stroke-width="1"/><line x1="880.0" y1="225.2" x2="753.6" y2="270.2" stroke="#94a3b8" stroke-opacity="0.24" stroke-width="1"/><line x1="880.0" y1="225.2" x2="785.0" y2="292.3" stroke="#94a3b8" stroke-opacity="0.24" stroke-width="1"/><line x1="880.0" y1="225.2" x2="869.6" y2="262.2" stroke="#94a3b8" stroke-opacity="0.24" stroke-width="1"/><line x1="880.0" y1="225.2" x2="841.6" y2="162.1" stroke="#94a3b8" stroke-opacity="0.24" stroke-width="1"/><line x1="880.0" y1="225.2" x2="877.4" y2="206.0" stroke="#94a3b8" stroke-opacity="0.24" stroke-width="1"/><line x1="880.0" y1="225.2" x2="869.6" y2="188.3" stroke="#94a3b8" stroke-opacity="0.24" stroke-width="1"/><line x1="880.0" y1="225.2" x2="877.4" y2="244.4" stroke="#94a3b8" stroke-opacity="0.24" stroke-width="1"/><line x1="857.4" y1="277.3" x2="823.3" y2="294.9" stroke="#94a3b8" stroke-opacity="0.24" stroke-width="1"/><line x1="857.4" y1="277.3" x2="804.0" y2="296.2" stroke="#94a3b8" stroke-opacity="0.24" stroke-width="1"/><line x1="857.4" y1="277.3" x2="841.6" y2="288.4" stroke="#94a3b8" stroke-opacity="0.24" stroke-width="1"/><line x1="785.0" y1="292.3" x2="767.8" y2="283.4" stroke="#94a3b8" stroke-opacity="0.24" stroke-width="1"/><line x1="753.6" y1="270.2" x2="743.6" y2="253.6" stroke="#94a3b8" stroke-opacity="0.24" stroke-width="1"/><line x1="753.6" y1="270.2" x2="738.3" y2="234.9" stroke="#94a3b8" stroke-opacity="0.24" stroke-width="1"/><line x1="753.6" y1="270.2" x2="738.3" y2="215.6" stroke="#94a3b8" stroke-opacity="0.24" stroke-width="1"/><line x1="743.6" y1="196.9" x2="823.3" y2="155.6" stroke="#94a3b8" stroke-opacity="0.24" stroke-width="1"/><line x1="743.6" y1="196.9" x2="753.6" y2="180.3" stroke="#94a3b8" stroke-opacity="0.24" stroke-width="1"/><line x1="743.6" y1="196.9" x2="785.0" y2="158.2" stroke="#94a3b8" stroke-opacity="0.24" stroke-width="1"/><line x1="743.6" y1="196.9" x2="767.8" y2="167.1" stroke="#94a3b8" stroke-opacity="0.24" stroke-width="1"/><line x1="743.6" y1="196.9" x2="804.0" y2="154.3" stroke="#94a3b8" stroke-opacity="0.24" stroke-width="1"/><line x1="841.6" y1="162.1" x2="857.4" y2="173.2" stroke="#94a3b8" stroke-opacity="0.24" stroke-width="1"/><line x1="708.8" y1="655.7" x2="610.3" y2="633.3" stroke="#94a3b8" stroke-opacity="0.24" stroke-width="1"/><line x1="708.8" y1="655.7" x2="610.3" y2="678.2" stroke="#94a3b8" stroke-opacity="0.24" stroke-width="1"/><line x1="708.8" y1="655.7" x2="645.4" y2="605.2" stroke="#94a3b8" stroke-opacity="0.24" stroke-width="1"/><line x1="708.8" y1="655.7" x2="645.4" y2="706.3" stroke="#94a3b8" stroke-opacity="0.24" stroke-width="1"/><line x1="708.8" y1="655.7" x2="689.3" y2="696.3" stroke="#94a3b8" stroke-opacity="0.24" stroke-width="1"/><line x1="645.4" y1="605.2" x2="689.3" y2="615.2" stroke="#94a3b8" stroke-opacity="0.24" stroke-width="1"/><line x1="332.1" y1="386.9" x2="250.6" y2="386.9" stroke="#94a3b8" stroke-opacity="0.24" stroke-width="1"/><circle cx="477.5" cy="622.6" r="8.0" fill="#7c3aed" fill-opacity="0.82" stroke="#fff" stroke-width="1.5"><title>supabase.ts (1 links)</title></circle><circle cx="396.1" cy="622.6" r="8.0" fill="#7c3aed" fill-opacity="0.82" stroke="#fff" stroke-width="1.5"><title>supabase (1 links)</title></circle><circle cx="428.2" cy="225.2" r="8.0" fill="#b45309" fill-opacity="0.82" stroke="#fff" stroke-width="1.5"><title>vite-env.d.ts (0 links)</title></circle><circle cx="671.2" cy="160.0" r="10.2" fill="#2563eb" fill-opacity="0.82" stroke="#fff" stroke-width="1.5"><title>tsconfig.json (3 links)</title></circle><circle cx="668.5" cy="179.2" r="17.0" fill="#2563eb" fill-opacity="0.82" stroke="#fff" stroke-width="1.5"><title>compilerOptions (16 links)</title></circle><circle cx="660.8" cy="197.0" r="8.0" fill="#2563eb" fill-opacity="0.82" stroke="#fff" stroke-width="1.5"><title>target (1 links)</title></circle><circle cx="648.6" cy="212.0" r="8.0" fill="#2563eb" fill-opacity="0.82" stroke="#fff" stroke-width="1.5"><title>useDefineForClassFields (1 links)</title></circle><circle cx="632.7" cy="223.2" r="11.0" fill="#2563eb" fill-opacity="0.82" stroke="#fff" stroke-width="1.5"><title>lib (4 links)</title></circle><circle cx="614.5" cy="229.7" r="8.0" fill="#2563eb" fill-opacity="0.82" stroke="#fff" stroke-width="1.5"><title>DOM (1 links)</title></circle><circle cx="595.1" cy="231.0" r="8.0" fill="#2563eb" fill-opacity="0.82" stroke="#fff" stroke-width="1.5"><title>DOM.Iterable (1 links)</title></circle><circle cx="576.2" cy="227.1" r="8.0" fill="#2563eb" fill-opacity="0.82" stroke="#fff" stroke-width="1.5"><title>ES2020 (1 links)</title></circle><circle cx="559.0" cy="218.1" r="8.0" fill="#2563eb" fill-opacity="0.82" stroke="#fff" stroke-width="1.5"><title>allowJs (1 links)</title></circle><circle cx="544.8" cy="204.9" r="8.0" fill="#2563eb" fill-opacity="0.82" stroke="#fff" stroke-width="1.5"><title>skipLibCheck (1 links)</title></circle><circle cx="534.7" cy="188.4" r="8.0" fill="#2563eb" fill-opacity="0.82" stroke="#fff" stroke-width="1.5"><title>esModuleInterop (1 links)</title></circle><circle cx="529.5" cy="169.7" r="8.0" fill="#2563eb" fill-opacity="0.82" stroke="#fff" stroke-width="1.5"><title>allowSyntheticDefaultImports (1 links)</title></circle><circle cx="529.5" cy="150.3" r="8.0" fill="#2563eb" fill-opacity="0.82" stroke="#fff" stroke-width="1.5"><title>strict (1 links)</title></circle><circle cx="534.7" cy="131.6" r="8.0" fill="#2563eb" fill-opacity="0.82" stroke="#fff" stroke-width="1.5"><title>forceConsistentCasingInFileNames (1 links)</title></circle><circle cx="544.8" cy="115.1" r="8.0" fill="#2563eb" fill-opacity="0.82" stroke="#fff" stroke-width="1.5"><title>module (1 links)</title></circle><circle cx="559.0" cy="101.9" r="8.0" fill="#2563eb" fill-opacity="0.82" stroke="#fff" stroke-width="1.5"><title>moduleResolution (1 links)</title></circle><circle cx="576.2" cy="92.9" r="8.0" fill="#2563eb" fill-opacity="0.82" stroke="#fff" stroke-width="1.5"><title>resolveJsonModule (1 links)</title></circle><circle cx="595.1" cy="89.0" r="8.0" fill="#2563eb" fill-opacity="0.82" stroke="#fff" stroke-width="1.5"><title>isolatedModules (1 links)</title></circle><circle cx="614.5" cy="90.3" r="8.0" fill="#2563eb" fill-opacity="0.82" stroke="#fff" stroke-width="1.5"><title>noEmit (1 links)</title></circle><circle cx="632.7" cy="96.8" r="8.0" fill="#2563eb" fill-opacity="0.82" stroke="#fff" stroke-width="1.5"><title>jsx (1 links)</title></circle><circle cx="648.6" cy="108.0" r="9.2" fill="#2563eb" fill-opacity="0.82" stroke="#fff" stroke-width="1.5"><title>include (2 links)</title></circle><circle cx="660.8" cy="123.0" r="8.0" fill="#2563eb" fill-opacity="0.82" stroke="#fff" stroke-width="1.5"><title>src (1 links)</title></circle><circle cx="668.5" cy="140.8" r="8.0" fill="#2563eb" fill-opacity="0.82" stroke="#fff" stroke-width="1.5"><title>references (1 links)</title></circle><circle cx="525.0" cy="176.9" r="8.0" fill="#0369a1" fill-opacity="0.82" stroke="#fff" stroke-width="1.5"><title>vite.config.ts (0 links)</title></circle><circle cx="967.9" cy="386.9" r="13.5" fill="#ea580c" fill-opacity="0.82" stroke="#fff" stroke-width="1.5"><title>package.json (8 links)</title></circle><circle cx="959.9" cy="416.5" r="8.0" fill="#ea580c" fill-opacity="0.82" stroke="#fff" stroke-width="1.5"><title>name (1 links)</title></circle><circle cx="938.3" cy="438.2" r="8.0" fill="#ea580c" fill-opacity="0.82" stroke="#fff" stroke-width="1.5"><title>version (1 links)</title></circle><circle cx="908.7" cy="446.1" r="8.0" fill="#ea580c" fill-opacity="0.82" stroke="#fff" stroke-width="1.5"><title>private (1 links)</title></circle><circle cx="879.1" cy="438.2" r="8.0" fill="#ea580c" fill-opacity="0.82" stroke="#fff" stroke-width="1.5"><title>type (1 links)</title></circle><circle cx="857.4" cy="416.5" r="9.2" fill="#ea580c" fill-opacity="0.82" stroke="#fff" stroke-width="1.5"><title>engines (2 links)</title></circle><circle cx="849.5" cy="386.9" r="8.0" fill="#ea580c" fill-opacity="0.82" stroke="#fff" stroke-width="1.5"><title>node (1 links)</title></circle><circle cx="857.4" cy="357.3" r="11.7" fill="#ea580c" fill-opacity="0.82" stroke="#fff" stroke-width="1.5"><title>scripts (5 links)</title></circle><circle cx="879.1" cy="335.7" r="8.0" fill="#ea580c" fill-opacity="0.82" stroke="#fff" stroke-width="1.5"><title>dev (1 links)</title></circle><circle cx="908.7" cy="327.8" r="8.0" fill="#ea580c" fill-opacity="0.82" stroke="#fff" stroke-width="1.5"><title>build (1 links)</title></circle><circle cx="938.3" cy="335.7" r="8.0" fill="#ea580c" fill-opacity="0.82" stroke="#fff" stroke-width="1.5"><title>preview (1 links)</title></circle><circle cx="959.9" cy="357.3" r="8.0" fill="#ea580c" fill-opacity="0.82" stroke="#fff" stroke-width="1.5"><title>e2e (1 links)</title></circle><circle cx="938.0" cy="298.6" r="12.9" fill="#9333ea" fill-opacity="0.82" stroke="#fff" stroke-width="1.5"><title>dependencies (7 links)</title></circle><circle cx="931.0" cy="326.7" r="9.2" fill="#9333ea" fill-opacity="0.82" stroke="#fff" stroke-width="1.5"><title>@supabase/supabase-js (2 links)</title></circle><circle cx="911.8" cy="348.3" r="8.0" fill="#9333ea" fill-opacity="0.82" stroke="#fff" stroke-width="1.5"><title>@supabase/supabase-js (1 links)</title></circle><circle cx="884.8" cy="358.6" r="9.2" fill="#9333ea" fill-opacity="0.82" stroke="#fff" stroke-width="1.5"><title>@vitejs/plugin-react (2 links)</title></circle><circle cx="856.1" cy="355.1" r="8.0" fill="#9333ea" fill-opacity="0.82" stroke="#fff" stroke-width="1.5"><title>@vitejs/plugin-react (1 links)</title></circle><circle cx="832.3" cy="338.7" r="9.2" fill="#9333ea" fill-opacity="0.82" stroke="#fff" stroke-width="1.5"><title>lucide-react (2 links)</title></circle><circle cx="818.8" cy="313.0" r="8.0" fill="#9333ea" fill-opacity="0.82" stroke="#fff" stroke-width="1.5"><title>lucide-react (1 links)</title></circle><circle cx="818.8" cy="284.1" r="9.2" fill="#9333ea" fill-opacity="0.82" stroke="#fff" stroke-width="1.5"><title>react (2 links)</title></circle><circle cx="832.3" cy="258.5" r="8.0" fill="#9333ea" fill-opacity="0.82" stroke="#fff" stroke-width="1.5"><title>react (1 links)</title></circle><circle cx="856.1" cy="242.0" r="9.2" fill="#9333ea" fill-opacity="0.82" stroke="#fff" stroke-width="1.5"><title>react-dom (2 links)</title></circle><circle cx="884.8" cy="238.6" r="8.0" fill="#9333ea" fill-opacity="0.82" stroke="#fff" stroke-width="1.5"><title>react-dom (1 links)</title></circle><circle cx="911.8" cy="248.8" r="9.2" fill="#9333ea" fill-opacity="0.82" stroke="#fff" stroke-width="1.5"><title>vite (2 links)</title></circle><circle cx="931.0" cy="270.5" r="8.0" fill="#9333ea" fill-opacity="0.82" stroke="#fff" stroke-width="1.5"><title>vite (1 links)</title></circle><circle cx="953.2" cy="478.4" r="11.7" fill="#0891b2" fill-opacity="0.82" stroke="#fff" stroke-width="1.5"><title>devDependencies (5 links)</title></circle><circle cx="940.3" cy="513.8" r="9.2" fill="#0891b2" fill-opacity="0.82" stroke="#fff" stroke-width="1.5"><title>@playwright/test (2 links)</title></circle><circle cx="907.7" cy="532.6" r="8.0" fill="#0891b2" fill-opacity="0.82" stroke="#fff" stroke-width="1.5"><title>@playwright/test (1 links)</title></circle><circle cx="870.7" cy="526.0" r="9.2" fill="#0891b2" fill-opacity="0.82" stroke="#fff" stroke-width="1.5"><title>@types/react (2 links)</title></circle><circle cx="846.5" cy="497.2" r="8.0" fill="#0891b2" fill-opacity="0.82" stroke="#fff" stroke-width="1.5"><title>@types/react (1 links)</title></circle><circle cx="846.5" cy="459.6" r="9.2" fill="#0891b2" fill-opacity="0.82" stroke="#fff" stroke-width="1.5"><title>@types/react-dom (2 links)</title></circle><circle cx="870.7" cy="430.8" r="8.0" fill="#0891b2" fill-opacity="0.82" stroke="#fff" stroke-width="1.5"><title>@types/react-dom (1 links)</title></circle><circle cx="907.7" cy="424.3" r="9.2" fill="#0891b2" fill-opacity="0.82" stroke="#fff" stroke-width="1.5"><title>typescript (2 links)</title></circle><circle cx="940.3" cy="443.1" r="8.0" fill="#0891b2" fill-opacity="0.82" stroke="#fff" stroke-width="1.5"><title>typescript (1 links)</title></circle><circle cx="359.5" cy="298.6" r="8.0" fill="#15803d" fill-opacity="0.82" stroke="#fff" stroke-width="1.5"><title>playwright.config.ts (0 links)</title></circle><circle cx="583.8" cy="655.7" r="8.0" fill="#0f766e" fill-opacity="0.82" stroke="#fff" stroke-width="1.5"><title>public-sw.js (1 links)</title></circle><circle cx="502.3" cy="655.7" r="8.0" fill="#0f766e" fill-opacity="0.82" stroke="#fff" stroke-width="1.5"><title>ASSETS (1 links)</title></circle><circle cx="783.1" cy="176.9" r="18.0" fill="#dc2626" fill-opacity="0.82" stroke="#fff" stroke-width="1.5"><title>main.tsx (43 links)</title></circle><circle cx="780.5" cy="196.1" r="8.0" fill="#dc2626" fill-opacity="0.82" stroke="#fff" stroke-width="1.5"><title>PlaybackMode (1 links)</title></circle><circle cx="772.8" cy="213.9" r="8.0" fill="#dc2626" fill-opacity="0.82" stroke="#fff" stroke-width="1.5"><title>BackgroundSound (1 links)</title></circle><circle cx="760.6" cy="228.9" r="8.0" fill="#dc2626" fill-opacity="0.82" stroke="#fff" stroke-width="1.5"><title>PersistedVocabMetadata (1 links)</title></circle><circle cx="744.7" cy="240.1" r="8.0" fill="#dc2626" fill-opacity="0.82" stroke="#fff" stroke-width="1.5"><title>SessionConfig (1 links)</title></circle><circle cx="726.5" cy="246.6" r="8.0" fill="#dc2626" fill-opacity="0.82" stroke="#fff" stroke-width="1.5"><title>SessionRecord (1 links)</title></circle><circle cx="707.1" cy="247.9" r="8.0" fill="#dc2626" fill-opacity="0.82" stroke="#fff" stroke-width="1.5"><title>nativeLanguages (1 links)</title></circle><circle cx="688.2" cy="243.9" r="8.0" fill="#dc2626" fill-opacity="0.82" stroke="#fff" stroke-width="1.5"><title>levels (1 links)</title></circle><circle cx="670.9" cy="235.0" r="8.0" fill="#dc2626" fill-opacity="0.82" stroke="#fff" stroke-width="1.5"><title>topics (1 links)</title></circle><circle cx="656.8" cy="221.8" r="8.0" fill="#dc2626" fill-opacity="0.82" stroke="#fff" stroke-width="1.5"><title>modes (1 links)</title></circle><circle cx="646.7" cy="205.2" r="8.0" fill="#dc2626" fill-opacity="0.82" stroke="#fff" stroke-width="1.5"><title>durations (1 links)</title></circle><circle cx="641.5" cy="186.6" r="8.0" fill="#dc2626" fill-opacity="0.82" stroke="#fff" stroke-width="1.5"><title>backgroundSounds (1 links)</title></circle><circle cx="641.5" cy="167.2" r="8.0" fill="#dc2626" fill-opacity="0.82" stroke="#fff" stroke-width="1.5"><title>rainSoundUrls (1 links)</title></circle><circle cx="646.7" cy="148.5" r="8.0" fill="#dc2626" fill-opacity="0.82" stroke="#fff" stroke-width="1.5"><title>defaultConfig (1 links)</title></circle><circle cx="656.8" cy="132.0" r="8.0" fill="#dc2626" fill-opacity="0.82" stroke="#fff" stroke-width="1.5"><title>familiarityValues (1 links)</title></circle><circle cx="902.4" cy="560.7" r="9.2" fill="#4f46e5" fill-opacity="0.82" stroke="#fff" stroke-width="1.5"><title>loadJson() (2 links)</title></circle><circle cx="889.5" cy="596.0" r="9.2" fill="#4f46e5" fill-opacity="0.82" stroke="#fff" stroke-width="1.5"><title>normalizeConfig() (2 links)</title></circle><circle cx="856.9" cy="614.8" r="9.2" fill="#4f46e5" fill-opacity="0.82" stroke="#fff" stroke-width="1.5"><title>withDefaultMetadata() (2 links)</title></circle><circle cx="819.9" cy="608.3" r="9.2" fill="#4f46e5" fill-opacity="0.82" stroke="#fff" stroke-width="1.5"><title>readPersistedVocabMetadata() (2 links)</title></circle><circle cx="795.7" cy="579.5" r="9.2" fill="#4f46e5" fill-opacity="0.82" stroke="#fff" stroke-width="1.5"><title>speak() (2 links)</title></circle><circle cx="795.7" cy="541.8" r="9.2" fill="#4f46e5" fill-opacity="0.82" stroke="#fff" stroke-width="1.5"><title>wait() (2 links)</title></circle><circle cx="342.6" cy="478.4" r="9.2" fill="#0284c7" fill-opacity="0.82" stroke="#fff" stroke-width="1.5"><title>createNoiseSource() (2 links)</title></circle><circle cx="261.1" cy="478.4" r="10.2" fill="#0284c7" fill-opacity="0.82" stroke="#fff" stroke-width="1.5"><title>useBackgroundSound() (3 links)</title></circle><circle cx="819.9" cy="513.0" r="15.4" fill="#4f46e5" fill-opacity="0.82" stroke="#fff" stroke-width="1.5"><title>App() (12 links)</title></circle><circle cx="393.3" cy="560.7" r="10.2" fill="#c2410c" fill-opacity="0.82" stroke="#fff" stroke-width="1.5"><title>buildPlaylist() (3 links)</title></circle><circle cx="311.9" cy="560.7" r="9.2" fill="#c2410c" fill-opacity="0.82" stroke="#fff" stroke-width="1.5"><title>statusWeight() (2 links)</title></circle><circle cx="856.9" cy="506.5" r="9.2" fill="#4f46e5" fill-opacity="0.82" stroke="#fff" stroke-width="1.5"><title>nextStatus() (2 links)</title></circle><circle cx="889.5" cy="525.3" r="9.2" fill="#4f46e5" fill-opacity="0.82" stroke="#fff" stroke-width="1.5"><title>formatTime() (2 links)</title></circle><circle cx="670.9" cy="118.7" r="8.0" fill="#dc2626" fill-opacity="0.82" stroke="#fff" stroke-width="1.5"><title>ControlGroup() (1 links)</title></circle><circle cx="688.2" cy="109.8" r="8.0" fill="#dc2626" fill-opacity="0.82" stroke="#fff" stroke-width="1.5"><title>Segmented() (1 links)</title></circle><circle cx="707.1" cy="105.9" r="8.0" fill="#dc2626" fill-opacity="0.82" stroke="#fff" stroke-width="1.5"><title>TimerPicker() (1 links)</title></circle><circle cx="726.5" cy="107.2" r="8.0" fill="#dc2626" fill-opacity="0.82" stroke="#fff" stroke-width="1.5"><title>RangeControl() (1 links)</title></circle><circle cx="744.7" cy="113.7" r="8.0" fill="#dc2626" fill-opacity="0.82" stroke="#fff" stroke-width="1.5"><title>Notice() (1 links)</title></circle><circle cx="760.6" cy="124.9" r="8.0" fill="#dc2626" fill-opacity="0.82" stroke="#fff" stroke-width="1.5"><title>WordRow() (1 links)</title></circle><circle cx="772.8" cy="139.9" r="8.0" fill="#dc2626" fill-opacity="0.82" stroke="#fff" stroke-width="1.5"><title>QuizScreen() (1 links)</title></circle><circle cx="780.5" cy="157.7" r="8.0" fill="#dc2626" fill-opacity="0.82" stroke="#fff" stroke-width="1.5"><title>EmptyState() (1 links)</title></circle><circle cx="816.6" cy="622.6" r="13.5" fill="#be123c" fill-opacity="0.82" stroke="#fff" stroke-width="1.5"><title>vocabulary.ts (8 links)</title></circle><circle cx="801.0" cy="660.4" r="9.2" fill="#be123c" fill-opacity="0.82" stroke="#fff" stroke-width="1.5"><title>TargetLanguage (2 links)</title></circle><circle cx="763.2" cy="676.0" r="9.2" fill="#be123c" fill-opacity="0.82" stroke="#fff" stroke-width="1.5"><title>NativeLanguage (2 links)</title></circle><circle cx="725.4" cy="660.4" r="9.2" fill="#be123c" fill-opacity="0.82" stroke="#fff" stroke-width="1.5"><title>Level (2 links)</title></circle><circle cx="709.7" cy="622.6" r="9.2" fill="#be123c" fill-opacity="0.82" stroke="#fff" stroke-width="1.5"><title>Topic (2 links)</title></circle><circle cx="725.4" cy="584.8" r="9.2" fill="#be123c" fill-opacity="0.82" stroke="#fff" stroke-width="1.5"><title>Familiarity (2 links)</title></circle><circle cx="763.2" cy="569.1" r="9.2" fill="#be123c" fill-opacity="0.82" stroke="#fff" stroke-width="1.5"><title>VocabItem (2 links)</title></circle><circle cx="801.0" cy="584.8" r="9.2" fill="#be123c" fill-opacity="0.82" stroke="#fff" stroke-width="1.5"><title>vocabSeed (2 links)</title></circle><circle cx="880.0" cy="225.2" r="14.0" fill="#16a34a" fill-opacity="0.82" stroke="#fff" stroke-width="1.5"><title>audio-lifecycle.spec.ts (9 links)</title></circle><circle cx="877.4" cy="244.4" r="8.0" fill="#16a34a" fill-opacity="0.82" stroke="#fff" stroke-width="1.5"><title>Window (1 links)</title></circle><circle cx="869.6" cy="262.2" r="8.0" fill="#16a34a" fill-opacity="0.82" stroke="#fff" stroke-width="1.5"><title>FakeMediaAudio (1 links)</title></circle><circle cx="857.4" cy="277.3" r="11.0" fill="#16a34a" fill-opacity="0.82" stroke="#fff" stroke-width="1.5"><title>FakeAudioParam (4 links)</title></circle><circle cx="841.6" cy="288.4" r="9.2" fill="#16a34a" fill-opacity="0.82" stroke="#fff" stroke-width="1.5"><title>.value() (2 links)</title></circle><circle cx="823.3" cy="294.9" r="8.0" fill="#16a34a" fill-opacity="0.82" stroke="#fff" stroke-width="1.5"><title>.cancelScheduledValues() (1 links)</title></circle><circle cx="804.0" cy="296.2" r="8.0" fill="#16a34a" fill-opacity="0.82" stroke="#fff" stroke-width="1.5"><title>.linearRampToValueAtTime() (1 links)</title></circle><circle cx="785.0" cy="292.3" r="9.2" fill="#16a34a" fill-opacity="0.82" stroke="#fff" stroke-width="1.5"><title>FakeGainNode (2 links)</title></circle><circle cx="767.8" cy="283.4" r="8.0" fill="#16a34a" fill-opacity="0.82" stroke="#fff" stroke-width="1.5"><title>.connect() (1 links)</title></circle><circle cx="753.6" cy="270.2" r="11.0" fill="#16a34a" fill-opacity="0.82" stroke="#fff" stroke-width="1.5"><title>FakeBufferSource (4 links)</title></circle><circle cx="743.6" cy="253.6" r="8.0" fill="#16a34a" fill-opacity="0.82" stroke="#fff" stroke-width="1.5"><title>.connect() (1 links)</title></circle><circle cx="738.3" cy="234.9" r="8.0" fill="#16a34a" fill-opacity="0.82" stroke="#fff" stroke-width="1.5"><title>.start() (1 links)</title></circle><circle cx="738.3" cy="215.6" r="8.0" fill="#16a34a" fill-opacity="0.82" stroke="#fff" stroke-width="1.5"><title>.stop() (1 links)</title></circle><circle cx="743.6" cy="196.9" r="12.3" fill="#16a34a" fill-opacity="0.82" stroke="#fff" stroke-width="1.5"><title>FakeAudioContext (6 links)</title></circle><circle cx="753.6" cy="180.3" r="8.0" fill="#16a34a" fill-opacity="0.82" stroke="#fff" stroke-width="1.5"><title>.createBuffer() (1 links)</title></circle><circle cx="767.8" cy="167.1" r="8.0" fill="#16a34a" fill-opacity="0.82" stroke="#fff" stroke-width="1.5"><title>.createGain() (1 links)</title></circle><circle cx="785.0" cy="158.2" r="8.0" fill="#16a34a" fill-opacity="0.82" stroke="#fff" stroke-width="1.5"><title>.createBufferSource() (1 links)</title></circle><circle cx="804.0" cy="154.3" r="8.0" fill="#16a34a" fill-opacity="0.82" stroke="#fff" stroke-width="1.5"><title>.decodeAudioData() (1 links)</title></circle><circle cx="823.3" cy="155.6" r="8.0" fill="#16a34a" fill-opacity="0.82" stroke="#fff" stroke-width="1.5"><title>.close() (1 links)</title></circle><circle cx="841.6" cy="162.1" r="9.2" fill="#16a34a" fill-opacity="0.82" stroke="#fff" stroke-width="1.5"><title>FakeSpeechSynthesisUtterance (2 links)</title></circle><circle cx="857.4" cy="173.2" r="8.0" fill="#16a34a" fill-opacity="0.82" stroke="#fff" stroke-width="1.5"><title>.constructor() (1 links)</title></circle><circle cx="869.6" cy="188.3" r="8.0" fill="#16a34a" fill-opacity="0.82" stroke="#fff" stroke-width="1.5"><title>sessionConfig (1 links)</title></circle><circle cx="877.4" cy="206.0" r="8.0" fill="#16a34a" fill-opacity="0.82" stroke="#fff" stroke-width="1.5"><title>prepareAudioHarness() (1 links)</title></circle><circle cx="708.8" cy="655.7" r="11.7" fill="#65a30d" fill-opacity="0.82" stroke="#fff" stroke-width="1.5"><title>playback-persistence.spec.ts (5 links)</title></circle><circle cx="689.3" cy="696.3" r="8.0" fill="#65a30d" fill-opacity="0.82" stroke="#fff" stroke-width="1.5"><title>Window (1 links)</title></circle><circle cx="645.4" cy="706.3" r="8.0" fill="#65a30d" fill-opacity="0.82" stroke="#fff" stroke-width="1.5"><title>TargetLanguage (1 links)</title></circle><circle cx="610.3" cy="678.2" r="8.0" fill="#65a30d" fill-opacity="0.82" stroke="#fff" stroke-width="1.5"><title>CorruptionCase (1 links)</title></circle><circle cx="610.3" cy="633.3" r="8.0" fill="#65a30d" fill-opacity="0.82" stroke="#fff" stroke-width="1.5"><title>cases (1 links)</title></circle><circle cx="645.4" cy="605.2" r="9.2" fill="#65a30d" fill-opacity="0.82" stroke="#fff" stroke-width="1.5"><title>FakeSpeechSynthesisUtterance (2 links)</title></circle><circle cx="689.3" cy="615.2" r="8.0" fill="#65a30d" fill-opacity="0.82" stroke="#fff" stroke-width="1.5"><title>.constructor() (1 links)</title></circle><circle cx="332.1" cy="386.9" r="8.0" fill="#a21caf" fill-opacity="0.82" stroke="#fff" stroke-width="1.5"><title>service-worker-strategy.spec.ts (1 links)</title></circle><circle cx="250.6" cy="386.9" r="8.0" fill="#a21caf" fill-opacity="0.82" stroke="#fff" stroke-width="1.5"><title>serviceWorkerPath (1 links)</title></circle><text x="681.2" y="150.0" font-family="Arial, sans-serif" font-size="13" font-weight="600" fill="#0f172a" paint-order="stroke" stroke="#f8fafc" stroke-width="4">tsconfig.json</text><text x="678.5" y="169.2" font-family="Arial, sans-serif" font-size="13" font-weight="600" fill="#0f172a" paint-order="stroke" stroke="#f8fafc" stroke-width="4">compilerOptions</text><text x="642.7" y="213.2" font-family="Arial, sans-serif" font-size="13" font-weight="600" fill="#0f172a" paint-order="stroke" stroke="#f8fafc" stroke-width="4">lib</text><text x="658.6" y="98.0" font-family="Arial, sans-serif" font-size="13" font-weight="600" fill="#0f172a" paint-order="stroke" stroke="#f8fafc" stroke-width="4">include</text><text x="977.9" y="376.9" font-family="Arial, sans-serif" font-size="13" font-weight="600" fill="#0f172a" paint-order="stroke" stroke="#f8fafc" stroke-width="4">package.json</text><text x="867.4" y="347.3" font-family="Arial, sans-serif" font-size="13" font-weight="600" fill="#0f172a" paint-order="stroke" stroke="#f8fafc" stroke-width="4">scripts</text><text x="948.0" y="288.6" font-family="Arial, sans-serif" font-size="13" font-weight="600" fill="#0f172a" paint-order="stroke" stroke="#f8fafc" stroke-width="4">dependencies</text><text x="963.2" y="468.4" font-family="Arial, sans-serif" font-size="13" font-weight="600" fill="#0f172a" paint-order="stroke" stroke="#f8fafc" stroke-width="4">devDependencies</text><text x="793.1" y="166.9" font-family="Arial, sans-serif" font-size="13" font-weight="600" fill="#0f172a" paint-order="stroke" stroke="#f8fafc" stroke-width="4">main.tsx</text><text x="271.1" y="468.4" font-family="Arial, sans-serif" font-size="13" font-weight="600" fill="#0f172a" paint-order="stroke" stroke="#f8fafc" stroke-width="4">useBackgroundSound()</text><text x="829.9" y="503.0" font-family="Arial, sans-serif" font-size="13" font-weight="600" fill="#0f172a" paint-order="stroke" stroke="#f8fafc" stroke-width="4">App()</text><text x="403.3" y="550.7" font-family="Arial, sans-serif" font-size="13" font-weight="600" fill="#0f172a" paint-order="stroke" stroke="#f8fafc" stroke-width="4">buildPlaylist()</text><text x="826.6" y="612.6" font-family="Arial, sans-serif" font-size="13" font-weight="600" fill="#0f172a" paint-order="stroke" stroke="#f8fafc" stroke-width="4">vocabulary.ts</text><text x="890.0" y="215.2" font-family="Arial, sans-serif" font-size="13" font-weight="600" fill="#0f172a" paint-order="stroke" stroke="#f8fafc" stroke-width="4">audio-lifecycle.spec.ts</text><text x="867.4" y="267.3" font-family="Arial, sans-serif" font-size="13" font-weight="600" fill="#0f172a" paint-order="stroke" stroke="#f8fafc" stroke-width="4">FakeAudioParam</text><text x="763.6" y="260.2" font-family="Arial, sans-serif" font-size="13" font-weight="600" fill="#0f172a" paint-order="stroke" stroke="#f8fafc" stroke-width="4">FakeBufferSource</text><text x="753.6" y="186.9" font-family="Arial, sans-serif" font-size="13" font-weight="600" fill="#0f172a" paint-order="stroke" stroke="#f8fafc" stroke-width="4">FakeAudioContext</text><text x="718.8" y="645.7" font-family="Arial, sans-serif" font-size="13" font-weight="600" fill="#0f172a" paint-order="stroke" stroke="#f8fafc" stroke-width="4">playback-persistence.spec.ts</text></svg>